<svg width="30" height="32" viewBox="0 0 30 32" fill="none" xmlns="http://www.w3.org/2000/svg">
<g id="tik-tok 1" filter="url(#filter0_dd_61_234)">
<g id="Group">
<g id="Group_2">
<path id="Vector" d="M11.4522 12.4407C9.54906 12.4407 8.01156 13.9782 8.03969 15.8626C8.05844 17.072 8.72406 18.122 9.70375 18.7079C9.37094 18.197 9.17406 17.5923 9.16469 16.9407C9.13656 15.0563 10.6741 13.5188 12.5772 13.5188C12.9522 13.5188 13.3131 13.5798 13.6506 13.6876V9.91416C13.2991 9.8626 12.9381 9.83447 12.5772 9.83447C12.5584 9.83447 12.5444 9.83447 12.5256 9.83447V12.6095C12.1881 12.5017 11.8272 12.4407 11.4522 12.4407Z" fill="#F00044"/>
<path id="Vector_2" d="M19.6787 1.125H19.6506H18.6756C18.9568 2.53594 19.749 3.76406 20.8553 4.59844C20.1287 3.6375 19.6881 2.4375 19.6787 1.125Z" fill="#F00044"/>
<path id="Vector_3" d="M25.4162 6.86729C25.0459 6.86729 24.6897 6.82979 24.3381 6.76416V9.46885C23.0631 9.46885 21.8256 9.22041 20.6631 8.72354C19.9131 8.40479 19.2147 7.99697 18.5725 7.50479L18.5912 15.8438C18.5819 17.7188 17.8412 19.4767 16.5006 20.8032C15.4084 21.8813 14.0256 22.5704 12.5256 22.7907C12.174 22.8423 11.8131 22.8704 11.4522 22.8704C9.84905 22.8704 8.32092 22.3501 7.07874 21.3892C7.21936 21.5579 7.36936 21.722 7.53342 21.8813C8.88342 23.2126 10.674 23.9485 12.5819 23.9485C12.9428 23.9485 13.3037 23.9204 13.6553 23.8688C15.1553 23.6485 16.5381 22.9595 17.6303 21.8813C18.9709 20.5548 19.7115 18.797 19.7209 16.922L19.6506 8.58291C20.2881 9.0751 20.9865 9.4876 21.7412 9.80166C22.9084 10.2938 24.1459 10.547 25.4162 10.547" fill="#F00044"/>
</g>
<path id="Vector_4" d="M7.51938 11.911C8.85532 10.5845 10.6319 9.84854 12.5256 9.83447V8.83604C12.1741 8.78447 11.8131 8.75635 11.4522 8.75635C9.53969 8.75635 7.74438 9.49229 6.39438 10.8329C5.06782 12.1501 4.30844 13.9501 4.31313 15.8204C4.31313 17.7048 5.05844 19.472 6.40376 20.8079C6.61938 21.0188 6.83969 21.2157 7.07407 21.3938C6.01469 20.1329 5.43813 18.5579 5.43344 16.8985C5.43813 15.0282 6.19282 13.2282 7.51938 11.911Z" fill="#08FFF9"/>
<path id="Vector_5" d="M24.3381 6.76401V5.76089H24.3287C23.0256 5.76089 21.8256 5.32964 20.86 4.59839C21.699 5.70464 22.9272 6.49214 24.3381 6.76401Z" fill="#08FFF9"/>
<path id="Vector_6" d="M12.385 20.2594C12.8303 20.2828 13.2569 20.2219 13.6506 20.0953C15.01 19.65 15.9897 18.3844 15.9897 16.8937L15.9944 11.3156V1.125H18.6756C18.6053 0.773438 18.5678 0.417188 18.5631 0.046875H14.8694V10.2328L14.8647 15.8109C14.8647 17.3016 13.885 18.5672 12.5256 19.0125C12.1319 19.1438 11.7053 19.2047 11.26 19.1766C10.6928 19.1438 10.1631 18.975 9.70374 18.7031C10.2803 19.5938 11.2647 20.1984 12.385 20.2594Z" fill="#08FFF9"/>
<path id="Vector_7" d="M12.5256 22.7906C14.0256 22.5703 15.4084 21.8812 16.5006 20.8031C17.8413 19.4766 18.5819 17.7188 18.5913 15.8438L18.5725 7.50469C19.21 7.99688 19.9084 8.40938 20.6631 8.72344C21.8303 9.21563 23.0678 9.46875 24.3381 9.46875V6.76406C22.9272 6.49219 21.6991 5.70469 20.86 4.59844C19.7538 3.76406 18.9569 2.53594 18.6803 1.125H15.9944V11.3109L15.9897 16.8891C15.9897 18.3797 15.01 19.6453 13.6506 20.0906C13.2569 20.2219 12.8303 20.2828 12.385 20.2547C11.26 20.1938 10.2803 19.5891 9.70376 18.7031C8.72407 18.1219 8.05844 17.0672 8.03969 15.8578C8.01157 13.9734 9.54907 12.4359 11.4522 12.4359C11.8272 12.4359 12.1881 12.4969 12.5256 12.6047V9.82969C10.6319 9.84375 8.85532 10.5797 7.51938 11.9062C6.19282 13.2234 5.43344 15.0234 5.43813 16.8891C5.43813 18.5484 6.01469 20.1234 7.07876 21.3844C8.32563 22.3453 9.84907 22.8656 11.4522 22.8656C11.8131 22.8703 12.1741 22.8422 12.5256 22.7906Z" fill="black"/>
</g>
</g>
<defs>
<filter id="filter0_dd_61_234" x="-1.08374" y="0" width="32" height="32" filterUnits="userSpaceOnUse" color-interpolation-filters="sRGB">
<feFlood flood-opacity="0" result="BackgroundImageFix"/>
<feColorMatrix in="SourceAlpha" type="matrix" values="0 0 0 0 0 0 0 0 0 0 0 0 0 0 0 0 0 0 127 0" result="hardAlpha"/>
<feOffset dy="4"/>
<feGaussianBlur stdDeviation="2"/>
<feComposite in2="hardAlpha" operator="out"/>
<feColorMatrix type="matrix" values="0 0 0 0 0 0 0 0 0 0 0 0 0 0 0 0 0 0 0.25 0"/>
<feBlend mode="normal" in2="BackgroundImageFix" result="effect1_dropShadow_61_234"/>
<feColorMatrix in="SourceAlpha" type="matrix" values="0 0 0 0 0 0 0 0 0 0 0 0 0 0 0 0 0 0 127 0" result="hardAlpha"/>
<feOffset dy="4"/>
<feGaussianBlur stdDeviation="2"/>
<feComposite in2="hardAlpha" operator="out"/>
<feColorMatrix type="matrix" values="0 0 0 0 0 0 0 0 0 0 0 0 0 0 0 0 0 0 0.25 0"/>
<feBlend mode="normal" in2="effect1_dropShadow_61_234" result="effect2_dropShadow_61_234"/>
<feBlend mode="normal" in="SourceGraphic" in2="effect2_dropShadow_61_234" result="shape"/>
</filter>
</defs>
</svg>
